<svg xmlns="http://www.w3.org/2000/svg" width="196" height="58" viewBox="0 0 196 58">
  <defs>
    <style>
      .cls-1, .cls-2 {
        stroke: #000;
        stroke-width: 1px;
        fill-rule: evenodd;
      }

      .cls-2 {
        fill: #fff;
      }
    </style>
  </defs>
  <path id="About_copy" data-name="About copy" class="cls-1" d="M44.939,20.8L11.071,22.96l2.157,33.867,13.509-.86L26.09,45.812l6.8-.433,0.647,10.155L47.1,54.671ZM32.462,38.624l-6.8.433-0.326-5.126,6.8-.433ZM83.8,40.453L78.4,35.7l4.754-5.4L82.4,18.418,48.531,20.575l2.157,33.867,13.557-.863L71,53.148l13.557-.863Zm-13.34,4.264-6.754.43-0.326-5.126,6.754-.43Zm-0.757-11.88-6.754.43L62.627,28.19l6.754-.43Zm50.281-17.054L86.119,17.94l2.154,33.82L122.14,49.6ZM107.878,38.631l-6.8.433-0.647-10.155,6.8-.433Zm50.3-25.136-13.556.863,0.753,11.832,0.647,10.156-6.754.43-0.647-10.155-0.753-11.832-13.557.863,2.154,33.82,33.867-2.157Zm36.071-2.3L162.2,13.239l0.754,11.832,9.484-.6,1.4,21.988,13.556-.863-1.4-21.987L195,23.03Z"/>
  <path id="About" class="cls-2" d="M34.939,10.8L1.071,12.96,3.228,46.828l13.509-.86L16.09,35.812l6.8-.433,0.647,10.155L37.1,44.671ZM22.462,28.624l-6.8.433-0.326-5.126,6.8-.433ZM73.8,30.453L68.4,25.7l4.754-5.4L72.4,8.418,38.531,10.575l2.157,33.867,13.557-.863L61,43.148l13.557-.863Zm-13.34,4.265-6.754.43-0.326-5.126,6.754-.43Zm-0.757-11.88-6.754.43L52.627,18.19l6.754-.43ZM109.986,5.783L76.119,7.94,78.273,41.76,112.14,39.6ZM97.878,28.631l-6.8.433L90.429,18.909l6.8-.433ZM148.173,3.5l-13.556.863,0.753,11.832,0.647,10.156-6.754.43-0.647-10.155L127.863,4.789l-13.557.863,2.154,33.82,33.867-2.157Zm36.071-2.3L152.2,3.239l0.754,11.832,9.484-.6,1.4,21.988,13.556-.863-1.4-21.987L185,13.03Z"/>
</svg>
