<svg xmlns="http://www.w3.org/2000/svg" xmlns:xlink="http://www.w3.org/1999/xlink" width="344" height="77" viewBox="0 0 344 77">
  <defs>
    <style>
      .cls-1, .cls-2 {
        stroke: #000;
        stroke-width: 1px;
        fill-rule: evenodd;
      }

      .cls-2 {
        fill: url(#linear-gradient);
      }
    </style>
    <linearGradient id="linear-gradient" x1="167.14" y1="65.656" x2="167.14" y2="1.063" gradientUnits="userSpaceOnUse">
      <stop offset="0" stop-color="#00f2fe"/>
      <stop offset="1" stop-color="#4facfe"/>
    </linearGradient>
  </defs>
  <path id="FANBOX_copy" data-name="FANBOX copy" class="cls-1" d="M57.4,22.847L11.222,24.792l2.142,50.859,20.358-.857L32.97,56.953l-0.106-2.518L45.6,53.9,45.17,43.756l-12.733.536L32.328,41.7l25.825-1.087Zm56.61-2.456L63.156,22.533,65.3,73.392l20.286-.854-0.642-15.25,10.215-.43L95.8,72.107l20.358-.857ZM94.729,46.714l-10.215.43-0.324-7.7,10.215-.43Zm76-26.261-0.109-2.59-20.358.857L150.979,35.7l-10.858-16.55L119.763,20l2.142,50.859,20.358-.857-0.712-16.9,10.855,16.478,20.358-.857ZM229,48.7l-7.947-7.3,7.305-7.946L227.6,15.608,176.742,17.75l2.142,50.859,20.358-.857,10.143-.427,20.358-.857Zm-20.143,5.965-10.143.427-0.324-7.7,10.143-.427ZM208.1,36.823l-10.143.427-0.322-7.625,10.143-.427ZM284.055,12.87L233.2,15.012,235.335,65.8l50.859-2.142ZM265.16,46.743l-10.215.43L254.3,31.923l10.215-.43Zm77.784,12.651-0.109-2.59-0.643-15.251L336.007,36.7l5.758-5.287-0.642-15.25-0.109-2.59-0.106-2.518-15.25.642-5.108.215,0.4,9.424-4.923,4.6-5.22-4.176-0.4-9.424-5.107.215-15.251.642,0.536,12.733,0.106,2.518,0.106,2.518,0.109,2.59,6.111,4.787L291.333,43.7l0.107,2.518,0.109,2.59,0.106,2.518,0.536,12.733,15.25-.642,5.108-.215-0.4-9.424,4.851-4.6,5.292,4.173,0.4,9.424,5.107-.215,15.251-.642Z"/>
  <path id="FANBOX" class="cls-2" d="M47.4,12.847L1.222,14.792,3.363,65.651l20.358-.857L22.97,46.953l-0.106-2.518L35.6,43.9,35.17,33.756l-12.733.536L22.328,31.7l25.825-1.087Zm56.61-2.456L53.156,12.533,55.3,63.392l20.286-.854L74.941,47.287l10.215-.43L85.8,62.107l20.358-.857ZM84.729,36.714l-10.215.43-0.324-7.7,10.215-.43Zm76-26.261-0.109-2.59-20.358.857L140.979,25.7,130.121,9.148,109.763,10l2.142,50.859,20.358-.857-0.712-16.9,10.855,16.478,20.358-.857ZM219,38.7l-7.947-7.3,7.305-7.946L217.6,5.608,166.742,7.75l2.142,50.859,20.358-.857,10.143-.427,20.358-.857Zm-20.143,5.965-10.143.427-0.324-7.7,10.143-.427ZM198.1,26.823l-10.143.427-0.322-7.625,10.143-.427ZM274.055,2.87L223.2,5.012,225.335,55.8l50.859-2.142Zm-18.9,33.873-10.215.43L244.3,21.923l10.215-.43Zm77.784,12.651-0.109-2.59-0.643-15.251L326.007,26.7l5.758-5.287L331.123,6.16l-0.109-2.59-0.106-2.518-15.25.642-5.108.215,0.4,9.424-4.923,4.6-5.22-4.176-0.4-9.424-5.107.215-15.251.642,0.536,12.733,0.106,2.518,0.106,2.518,0.109,2.59,6.111,4.787L281.333,33.7l0.107,2.518,0.109,2.59,0.106,2.518,0.536,12.733,15.25-.642,5.108-.215-0.4-9.424,4.851-4.6,5.292,4.173,0.4,9.424,5.107-.215,15.251-.642Z"/>
</svg>
