<?xml version="1.0" encoding="utf-8"?>
<!-- Generator: Adobe Illustrator 26.1.0, SVG Export Plug-In . SVG Version: 6.00 Build 0)  -->
<svg version="1.1" id="Layer_1" xmlns="http://www.w3.org/2000/svg" xmlns:xlink="http://www.w3.org/1999/xlink" x="0px" y="0px"
	 viewBox="0 0 316 55" style="enable-background:new 0 0 316 55;" xml:space="preserve">
<style type="text/css">
	.st0{fill-rule:evenodd;clip-rule:evenodd;stroke:#000000;stroke-miterlimit:10;}
	.st1{fill-rule:evenodd;clip-rule:evenodd;fill:#FFFFFF;stroke:#000000;stroke-miterlimit:10;}
</style>
<path id="GALLERIES" class="st0" d="M45.3,34.1l0.3-8.7L31.7,25l-5.2-0.1l-0.2,6.9l5.2,0.1l-0.1,1.8l-6.9-0.2l0.3-10.4l20.8,0.6
	l0.3-12.1l-34.6-1l-1,34.6l34.6,1L45.3,34.1z M84.7,12.6l-34.6-1l-1,34.6l13.8,0.4l0.3-10.4l7,0.2l-0.3,10.4l13.9,0.4L84.7,12.6z
	 M70.4,29.5l-7-0.2l0.2-5.2l7,0.2L70.4,29.5z M117.8,36.2l-15.9-0.5l0.7-22.5l-13.9-0.4l-1,34.6l29.7,0.9L117.8,36.2z M151.1,37.2
	l-15.9-0.5l0.7-22.5L122,13.8l-1,34.6l29.7,0.9L151.1,37.2z M185.8,38.2l-17.3-0.5l0.1-1.8l8.7,0.2l0.2-6.9l-8.7-0.3l0.1-1.8
	l17.3,0.5l0.4-12.1l-31.2-0.9l-1,34.6l31.2,0.9L185.8,38.2z M225.8,16.4l-34.6-1l-1,34.6l13.9,0.4l0.3-10.4l4.9,10.5l15.6,0.5
	l-4.9-10.5l5.2,0.2L225.8,16.4z M211.4,33.4l-6.9-0.2l0.2-5.2l6.9,0.2L211.4,33.4z M244.4,17.2l-13.9-0.4l-1,34.6l13.9,0.4
	L244.4,17.2z M279.3,40.9L262,40.4l0.1-1.8l8.7,0.3l0.2-6.9l-8.7-0.3l0.1-1.8l17.3,0.5l0.4-12.1l-31.2-0.9l-1,34.6l31.2,0.9
	L279.3,40.9z M315.1,33l-19-0.5l0.1-1.8l19,0.5l0.4-12.1l-31.2-0.9L283.7,39l17.3,0.5l-0.1,1.8l-17.3-0.5l-0.4,12.1l31.2,0.9
	L315.1,33z"/>
<path id="GALLERIES-2" class="st1" d="M35.7,24.5l0.3-8.7l-13.9-0.4l-5.2-0.1l-0.2,6.9l5.2,0.1l-0.1,1.8l-6.9-0.2l0.3-10.4L36,14.1
	L36.3,2L1.7,1l-1,34.6l34.6,1L35.7,24.5z M75.1,3L40.5,2l-1,34.6L53.3,37l0.3-10.4l7,0.2l-0.3,10.4l13.9,0.4L75.1,3z M60.8,19.9
	l-7-0.2l0.2-5.2l7,0.2L60.8,19.9z M108.2,26.6l-15.9-0.5L93,3.6L79.1,3.2l-1,34.6l29.7,0.9L108.2,26.6z M141.5,27.6l-15.9-0.5
	l0.7-22.5l-13.9-0.4l-1,34.6l29.7,0.9L141.5,27.6z M176.2,28.6l-17.3-0.5l0.1-1.8l8.7,0.2l0.2-6.9l-8.7-0.3l0.1-1.8l17.3,0.5
	l0.4-12.1l-31.2-0.9l-1,34.6l31.2,0.9L176.2,28.6z M216.2,6.8l-34.6-1l-1,34.6l13.9,0.4l0.3-10.4l4.9,10.5l15.6,0.5l-4.9-10.5
	l5.2,0.1L216.2,6.8z M201.8,23.8l-6.9-0.2l0.2-5.2l6.9,0.2L201.8,23.8z M234.8,7.6L221,7.2l-1,34.6l13.9,0.4L234.8,7.6z M269.7,31.3
	l-17.3-0.5l0.1-1.8l8.7,0.3l0.2-6.9l-8.7-0.3l0.1-1.8l17.3,0.5l0.4-12.1l-31.2-0.9l-1,34.6l31.2,0.9L269.7,31.3z M305.5,23.4
	l-19-0.5l0.1-1.8l19,0.5l0.4-12.1l-31.2-0.9l-0.6,20.8l17.3,0.5l-0.1,1.8l-17.3-0.5l-0.4,12.1l31.2,0.9L305.5,23.4z"/>
</svg>
