<svg xmlns="http://www.w3.org/2000/svg" width="318" height="54" viewBox="0 0 318 54">
  <defs>
    <style>
      .cls-1, .cls-2 {
        stroke: #000;
        stroke-width: 1px;
        fill-rule: evenodd;
      }

      .cls-2 {
        fill: #fff;
      }
    </style>
  </defs>
  <path id="Galerries_copy" data-name="Galerries copy" class="cls-1" d="M45.744,33.6L46,25.106l-13.578-.4-5.086-.151-0.2,6.765,5.086,0.151-0.051,1.727-6.765-.2,0.3-10.219,20.343,0.606L46.4,11.528,12.48,10.518l-1.01,33.921,33.921,1.01ZM84.4,12.563l-33.921-1.01-1.01,33.921L63,45.877l0.3-10.172,6.813,0.2-0.3,10.172,13.578,0.4ZM70.319,29.143l-6.813-.2,0.153-5.134,6.813,0.2Zm46.433,6.569-15.545-.463,0.657-22.07-13.578-.4L87.276,46.7,116.4,47.563Zm33.967,1.059-16.936-.5,0.051-1.727,8.492,0.253,0.2-6.765-8.492-.253,0.051-1.727,16.937,0.5L151.376,14.7l-30.514-.908-1.01,33.921,30.515,0.908Zm39.243-21.306-33.921-1.01-1.01,33.921,13.578,0.4,0.3-10.172L173.7,48.932l15.257,0.454-4.783-10.323,5.086,0.151Zm-14.084,16.58-6.765-.2,0.153-5.134,6.765,0.2Zm52.994-15.422-33.921-1.01-1.01,33.921,13.578,0.4,0.3-10.171,4.783,10.323,15.257,0.454L223.08,40.222l5.085,0.151ZM214.789,33.2l-6.765-.2,0.152-5.134,6.765,0.2ZM247.1,17.358l-13.578-.4-1.01,33.921,13.578,0.4Zm34.121,23.3-16.936-.5,0.051-1.727,8.493,0.253,0.2-6.765-8.492-.253,0.051-1.727,16.937,0.5,0.352-11.851-30.514-.908L250.352,51.6l30.515,0.908Zm35.094-7.743L297.7,32.358l0.051-1.727,18.616,0.554,0.353-11.851L286.2,18.426,285.6,38.769l16.984,0.506L302.53,41,285.545,40.5l-0.352,11.851,30.514,0.908Z"/>
  <path id="Galerries" class="cls-2" d="M35.744,23.6L36,15.106l-13.578-.4-5.086-.151-0.2,6.765,5.086,0.151-0.051,1.727-6.765-.2,0.3-10.219,20.343,0.606L36.4,1.528,2.48,0.518,1.471,34.439l33.921,1.01ZM74.4,2.563L40.482,1.553l-1.01,33.921L53,35.877l0.3-10.172,6.813,0.2-0.3,10.171,13.578,0.4ZM60.319,19.143l-6.813-.2,0.153-5.134,6.813,0.2Zm46.433,6.569-15.545-.463,0.657-22.07-13.578-.4L77.276,36.7,106.4,37.563Zm33.967,1.059-16.936-.5,0.051-1.727,8.492,0.253,0.2-6.765-8.492-.253,0.051-1.727,16.937,0.5L141.376,4.7l-30.514-.908-1.01,33.921,30.515,0.908ZM179.962,5.465l-33.921-1.01-1.01,33.921,13.578,0.4,0.3-10.172L163.7,38.932l15.257,0.454-4.783-10.323,5.086,0.151Zm-14.084,16.58-6.765-.2,0.153-5.134,6.765,0.2ZM218.872,6.624l-33.921-1.01-1.01,33.921,13.578,0.4,0.3-10.171,4.783,10.323,15.257,0.454L213.08,30.222l5.085,0.151ZM204.789,23.2l-6.765-.2,0.152-5.134,6.765,0.2ZM237.1,7.358l-13.578-.4-1.01,33.921,13.578,0.4Zm34.121,23.3-16.936-.5,0.051-1.727,8.493,0.253,0.2-6.765-8.492-.253,0.051-1.727,16.937,0.5,0.352-11.851-30.514-.908L240.352,41.6l30.515,0.908Zm35.094-7.743L287.7,22.358l0.051-1.727,18.616,0.554,0.353-11.851L276.2,8.426,275.6,28.769l16.984,0.506L292.53,31,275.545,30.5l-0.352,11.851,30.514,0.908Z"/>
</svg>
