<svg xmlns="http://www.w3.org/2000/svg" xmlns:xlink="http://www.w3.org/1999/xlink" width="375" height="67" viewBox="0 0 375 67">
  <defs>
    <style>
      .cls-1, .cls-2 {
        stroke: #000;
        fill-rule: evenodd;
      }

      .cls-1 {
        stroke-width: 1px;
      }

      .cls-2 {
        stroke-width: 2px;
        fill: url(#linear-gradient);
      }
    </style>
    <linearGradient id="linear-gradient" x1="183.881" y1="55.406" x2="181.057" y2="1.531" gradientUnits="userSpaceOnUse">
      <stop offset="0" stop-color="#38f8d4"/>
      <stop offset="1" stop-color="#43ea80"/>
    </linearGradient>
  </defs>
  <path id="Interactive_copy" data-name="Interactive copy" class="cls-1" d="M25.3,30.75l-13.563.761,1.9,33.883L27.2,64.632Zm38.242-.463-0.1-1.725-13.563.761,0.635,11.31L43.125,29.7l-13.563.761,1.9,33.883,13.563-.761L44.394,52.322l7.389,10.883,13.563-.761Zm35.942-3.747-32.062,1.8,0.664,11.837,9.489-.532,1.234,22,13.563-.761-1.234-22,9.01-.506ZM135.1,46.9l-16.918.949-0.1-1.725,8.483-.476-0.379-6.757-8.483.476-0.1-1.725,16.918-.949L133.86,24.851l-30.481,1.71,1.9,33.883,30.48-1.71Zm37.272-24.591-33.883,1.9,1.9,33.883,13.563-.761-0.57-10.16,5.65,9.875,15.24-.855-5.65-9.875,5.08-.285ZM159.758,40.031L153,40.411l-0.288-5.128,6.757-.379ZM210.673,20.4l-33.882,1.9,1.9,33.883,13.515-.758-0.57-10.16,6.805-.382,0.57,10.16,13.563-.761Zm-12.61,17.726-6.806.382-0.287-5.128,6.805-.382Zm49.546,2.22-17.972,1.008-0.573-10.208,17.972-1.008L246.372,18.3l-31.535,1.769,1.9,33.883,31.535-1.77Zm34.083-24.027-32.062,1.8,0.664,11.837,9.489-.532,1.235,22,13.562-.761-1.234-22,9.01-.506Zm17.734-.947-13.562.761,1.9,33.883,13.562-.761Zm38.445,1.448-0.094-1.677-0.1-1.725-10.16.57-3.4.191,1.046,18.643-3.239,3.114L318.358,33.2l-1.046-18.643-3.354.188-10.16.57,0.476,8.483,0.094,1.677,0.1,1.725,0.744,13.275,10.65,8.152,13.563-.761,9.67-9.292Zm34.641,16.758-16.918.949L355.5,32.8l8.482-.476L363.6,25.565l-8.483.476-0.1-1.725,16.917-.949-0.664-11.837-30.48,1.71,1.9,33.883,30.48-1.71Z"/>
  <path id="Interactive" class="cls-2" d="M15.3,20.75l-13.563.761,1.9,33.883L17.2,54.633Zm38.242-.463-0.1-1.725-13.563.761,0.635,11.31L33.125,19.7l-13.563.761,1.9,33.883,13.563-.761L34.394,42.322l7.389,10.883,13.563-.761Zm35.942-3.747-32.062,1.8,0.664,11.837,9.489-.532,1.234,22,13.563-.761-1.234-22,9.01-.506ZM125.1,36.9l-16.918.949-0.1-1.725,8.483-.476-0.379-6.757-8.483.476-0.1-1.725,16.918-.949L123.86,14.851,93.38,16.561l1.9,33.883,30.48-1.71Zm37.272-24.591-33.883,1.9,1.9,33.883,13.563-.761-0.57-10.16,5.65,9.875,15.24-.855-5.65-9.875,5.08-.285ZM149.758,30.031L143,30.411l-0.288-5.128,6.757-.379ZM200.673,10.4l-33.882,1.9,1.9,33.883,13.515-.758-0.57-10.16,6.805-.382,0.57,10.16,13.563-.761Zm-12.61,17.726-6.806.382-0.287-5.128,6.805-.382Zm49.546,2.22-17.972,1.009-0.573-10.208,17.972-1.008L236.372,8.3l-31.535,1.769,1.9,33.883,31.535-1.77ZM271.692,6.315l-32.062,1.8,0.664,11.837,9.489-.532,1.235,22,13.562-.761-1.234-22,9.01-.506Zm17.734-.947-13.562.761,1.9,33.883,13.562-.761Zm38.445,1.448-0.094-1.677-0.1-1.725-10.16.57-3.4.191,1.046,18.643-3.239,3.114L308.358,23.2,307.312,4.557l-3.354.188-10.16.57,0.476,8.483,0.094,1.677,0.1,1.725,0.744,13.275,10.65,8.152,13.563-.761,9.67-9.292Zm34.641,16.758-16.918.949L345.5,22.8l8.482-.476L353.6,15.565l-8.483.476-0.1-1.725,16.917-.949L361.275,1.529,330.8,3.239l1.9,33.883,30.48-1.71Z"/>
</svg>
