<svg xmlns="http://www.w3.org/2000/svg" width="407" height="69" viewBox="0 0 407 69">
  <defs>
    <style>
      .cls-1, .cls-2 {
        fill-rule: evenodd;
      }

      .cls-2 {
        fill: #fff;
      }
    </style>
  </defs>
  <path id="Interactives" class="cls-1" d="M24.46,33.111L10.922,33.9l1.966,33.82,13.538-.787Zm38.174-.539-0.1-1.722L49,31.637l0.656,11.289-7.4-10.9-13.538.787,1.966,33.82,13.538-.787L43.564,54.608l7.4,10.849L64.5,64.67ZM98.506,28.76l-32,1.86,0.687,11.816,9.471-.55,1.276,21.957,13.538-.787L90.2,41.1l8.993-.523ZM134.1,49.01l-16.886.981-0.1-1.722,8.467-.492-0.392-6.745-8.467.492-0.1-1.722,16.886-.981-0.687-11.816L102.4,28.774l1.965,33.82,30.424-1.768Zm37.158-24.623-33.82,1.966,1.966,33.82,13.538-.787-0.59-10.141,5.66,9.846,15.212-.884-5.66-9.846,5.071-.295ZM158.7,42.108l-6.745.392-0.3-5.118,6.745-.392ZM209.49,22.4l-33.82,1.966,1.965,33.82,13.49-.784-0.589-10.141,6.792-.395,0.59,10.141,13.537-.787ZM196.936,40.126l-6.792.395-0.3-5.118,6.793-.395ZM246.4,42.243l-17.939,1.043L227.87,33.1l17.938-1.043-0.686-11.815-31.476,1.829,1.965,33.82,31.476-1.829Zm33.975-24.054-32,1.86,0.687,11.816,9.471-.55,1.277,21.957,13.537-.787L272.07,30.527,281.063,30Zm17.7-.981-13.537.787,1.965,33.82,13.538-.787Zm38.381,1.369-0.1-1.674-0.1-1.722-10.141.589-3.4.2,1.082,18.608-3.227,3.115-3.566-2.721-1.081-18.608-3.349.195-10.141.589,0.492,8.467,0.1,1.674,0.1,1.722L303.9,42.26l10.647,8.117,13.537-.787,9.636-9.3Zm34.614,16.659-16.886.981-0.1-1.722L362.554,34l-0.392-6.745-8.467.492-0.1-1.722,16.886-.982-0.687-11.815L339.371,15l1.965,33.82,30.424-1.768Zm34.22-10.772-18.561,1.079-0.1-1.722,18.561-1.079-0.687-11.815-30.424,1.768,1.179,20.283,16.934-.984,0.1,1.722-16.934.984,0.687,11.816,30.424-1.768Z"/>
  <path id="Interactives-2" data-name="Interactives" class="cls-2" d="M14.46,23.111L0.922,23.9l1.966,33.82,13.538-.787Zm38.174-.539-0.1-1.722L39,21.637l0.656,11.289-7.4-10.9-13.538.787,1.966,33.82,13.538-.787L33.564,44.608l7.4,10.849L54.5,54.67ZM88.506,18.76l-32,1.86,0.687,11.816,9.471-.551,1.276,21.957,13.538-.787L80.2,31.1l8.993-.523ZM124.1,39.01l-16.886.981-0.1-1.722,8.467-.492-0.392-6.745-8.467.492-0.1-1.722,16.886-.981-0.687-11.815L92.395,18.774l1.966,33.82,30.424-1.768Zm37.158-24.623-33.82,1.966,1.966,33.82,13.538-.787-0.59-10.141,5.66,9.846,15.212-.884-5.66-9.846,5.071-.295ZM148.7,32.108l-6.745.392-0.3-5.119,6.745-.392ZM199.49,12.4l-33.82,1.966,1.965,33.82,13.49-.784-0.589-10.141,6.792-.395,0.59,10.141,13.537-.787ZM186.936,30.126l-6.792.395-0.3-5.118,6.793-.395ZM236.4,32.243l-17.939,1.043L217.87,23.1l17.938-1.043-0.686-11.815-31.476,1.829,1.965,33.82,31.476-1.829ZM270.376,8.189l-32,1.86,0.687,11.816,9.471-.55,1.277,21.957,13.537-.787L262.07,20.527,271.063,20Zm17.7-.981-13.537.787,1.965,33.82,13.538-.787Zm38.381,1.369-0.1-1.674-0.1-1.722-10.141.589-3.4.2,1.082,18.608-3.227,3.115-3.566-2.721L305.932,6.362l-3.349.195-10.141.589,0.492,8.467,0.1,1.674,0.1,1.722L293.9,32.26l10.647,8.117,13.537-.787,9.636-9.3Zm34.614,16.659-16.886.981-0.1-1.722L352.554,24l-0.392-6.745-8.467.492-0.1-1.722,16.886-.982L359.794,3.232,329.371,5l1.965,33.82,30.424-1.768Zm34.22-10.772-18.561,1.079-0.1-1.722,18.561-1.079L394.506,0.926,364.082,2.695l1.179,20.282,16.934-.984,0.1,1.722-16.934.984,0.687,11.816,30.424-1.768Z"/>
</svg>
