<?xml version="1.0" encoding="utf-8"?>
<!-- Generator: Adobe Illustrator 26.1.0, SVG Export Plug-In . SVG Version: 6.00 Build 0)  -->
<svg version="1.1" id="Layer_1" xmlns="http://www.w3.org/2000/svg" xmlns:xlink="http://www.w3.org/1999/xlink" x="0px" y="0px"
	 viewBox="0 0 407 69" style="enable-background:new 0 0 407 69;" xml:space="preserve">
<style type="text/css">
	.st0{fill-rule:evenodd;clip-rule:evenodd;stroke:#000000;stroke-miterlimit:10;}
	
		.st1{fill-rule:evenodd;clip-rule:evenodd;fill:url(#Interactives-2_00000134951603576256725780000008318086756558305671_);stroke:#000000;stroke-miterlimit:10;}
</style>
<path id="Interactives" class="st0" d="M24.5,33.1l-13.5,0.8l2,33.8l13.5-0.8L24.5,33.1z M62.6,32.6l-0.1-1.7L49,31.6l0.7,11.3
	L42.3,32l-13.5,0.8l2,33.8l13.5-0.8l-0.7-11.2L51,65.5l13.5-0.8L62.6,32.6z M98.5,28.8l-32,1.9l0.7,11.8l9.5-0.5l1.3,22l13.5-0.8
	l-1.3-22l9-0.5L98.5,28.8z M134.1,49l-16.9,1l-0.1-1.7l8.5-0.5l-0.4-6.7l-8.5,0.5l-0.1-1.7l16.9-1L132.8,27l-30.4,1.8l2,33.8
	l30.4-1.8L134.1,49z M171.3,24.4l-33.8,2l2,33.8l13.5-0.8l-0.6-10.1l5.7,9.8l15.2-0.9l-5.7-9.8l5.1-0.3L171.3,24.4z M158.7,42.1
	l-6.7,0.4l-0.3-5.1l6.7-0.4L158.7,42.1z M209.5,22.4l-33.8,2l2,33.8l13.5-0.8l-0.6-10.1l6.8-0.4l0.6,10.1l13.5-0.8L209.5,22.4z
	 M196.9,40.1l-6.8,0.4l-0.3-5.1l6.8-0.4L196.9,40.1z M246.4,42.2l-17.9,1l-0.6-10.2l17.9-1l-0.7-11.8l-31.5,1.8l2,33.8l31.5-1.8
	L246.4,42.2z M280.4,18.2l-32,1.9l0.7,11.8l9.5-0.5l1.3,22l13.5-0.8l-1.3-22l9-0.5L280.4,18.2z M298.1,17.2L284.5,18l2,33.8L300,51
	L298.1,17.2z M336.5,18.6l-0.1-1.7l-0.1-1.7l-10.1,0.6l-3.4,0.2l1.1,18.6l-3.2,3.1L317,35l-1.1-18.6l-3.3,0.2l-10.1,0.6l0.5,8.5
	l0.1,1.7l0.1,1.7l0.8,13.2l10.6,8.1l13.5-0.8l9.6-9.3L336.5,18.6z M371.1,35.2l-16.9,1l-0.1-1.7l8.5-0.5l-0.4-6.7l-8.5,0.5l-0.1-1.7
	l16.9-1l-0.7-11.8L339.4,15l2,33.8l30.4-1.8L371.1,35.2z M405.3,24.5l-18.6,1.1l-0.1-1.7l18.6-1.1l-0.7-11.8l-30.4,1.8l1.2,20.3
	l16.9-1l0.1,1.7l-16.9,1l0.7,11.8l30.4-1.8L405.3,24.5z"/>
<linearGradient id="Interactives-2_00000108301957574304262900000016217935040738288787_" gradientUnits="userSpaceOnUse" x1="200.1853" y1="12.2807" x2="197.2093" y2="69.0617" gradientTransform="matrix(1 0 0 -1 0 70)">
	<stop  offset="0" style="stop-color:#38F8D4"/>
	<stop  offset="1" style="stop-color:#43EA80"/>
</linearGradient>
<path id="Interactives-2" style="fill-rule:evenodd;clip-rule:evenodd;fill:url(#Interactives-2_00000108301957574304262900000016217935040738288787_);stroke:#000000;stroke-miterlimit:10;" d="
	M14.5,23.1L0.9,23.9l2,33.8l13.5-0.8L14.5,23.1z M52.6,22.6l-0.1-1.7L39,21.6l0.7,11.3L32.3,22l-13.5,0.8l2,33.8l13.5-0.8l-0.7-11.2
	L41,55.5l13.5-0.8L52.6,22.6z M88.5,18.8l-32,1.9l0.7,11.8l9.5-0.6l1.3,22l13.5-0.8l-1.3-22l9-0.5L88.5,18.8z M124.1,39l-16.9,1
	l-0.1-1.7l8.5-0.5l-0.4-6.7l-8.5,0.5l-0.1-1.7l16.9-1L122.8,17l-30.4,1.8l2,33.8l30.4-1.8L124.1,39z M161.3,14.4l-33.8,2l2,33.8
	l13.5-0.8l-0.6-10.1l5.7,9.8l15.2-0.9l-5.7-9.8l5.1-0.3L161.3,14.4z M148.7,32.1l-6.7,0.4l-0.3-5.1l6.7-0.4L148.7,32.1z M199.5,12.4
	l-33.8,2l2,33.8l13.5-0.8l-0.6-10.1l6.8-0.4l0.6,10.1l13.5-0.8L199.5,12.4z M186.9,30.1l-6.8,0.4l-0.3-5.1l6.8-0.4L186.9,30.1z
	 M236.4,32.2l-17.9,1l-0.6-10.2l17.9-1l-0.7-11.8l-31.5,1.8l2,33.8l31.5-1.8L236.4,32.2z M270.4,8.2l-32,1.9l0.7,11.8l9.5-0.5
	l1.3,22l13.5-0.8l-1.3-22l9-0.5L270.4,8.2z M288.1,7.2L274.5,8l2,33.8L290,41L288.1,7.2z M326.5,8.6l-0.1-1.7l-0.1-1.7l-10.1,0.6
	L312.7,6l1.1,18.6l-3.2,3.1L307,25l-1.1-18.6l-3.3,0.2l-10.1,0.6l0.5,8.5l0.1,1.7l0.1,1.7l0.8,13.3l10.6,8.1l13.5-0.8l9.6-9.3
	L326.5,8.6z M361.1,25.2l-16.9,1l-0.1-1.7l8.5-0.5l-0.4-6.7l-8.5,0.5l-0.1-1.7l16.9-1l-0.7-11.8L329.4,5l2,33.8l30.4-1.8L361.1,25.2
	z M395.3,14.5l-18.6,1.1l-0.1-1.7l18.6-1.1l-0.7-11.8l-30.4,1.8l1.2,20.3l16.9-1l0.1,1.7l-16.9,1l0.7,11.8l30.4-1.8L395.3,14.5z"/>
</svg>
