<svg xmlns="http://www.w3.org/2000/svg" width="399" height="86" viewBox="0 0 399 86">
  <defs>
    <style>
      .cls-1, .cls-2 {
        stroke: #000;
        stroke-width: 1px;
        fill-rule: evenodd;
      }

      .cls-2 {
        fill: #fff;
      }
    </style>
  </defs>
  <path id="Shadow" class="cls-1" d="M64.192,14.341L13.879,11.374l-3,50.816,20.341,1.2,0.9-15.238,10.206,0.6L62.093,49.92ZM42.925,38.619l-10.206-.6,0.454-7.691,10.206,0.6ZM120.5,18.312l-50.815-3-3,50.816,20.269,1.2,0.9-15.237,10.206,0.6-0.9,15.237,20.341,1.2ZM98.662,42.556l-10.206-.6,0.454-7.691,10.206,0.6Zm75.181-21.242-48.085-2.836-1.047,17.753,14.231,0.84L137,70.061l20.341,1.2,1.946-32.991,13.512,0.8Zm57.584,3.18-50.816-3-3,50.816,20.34,1.2,0.9-15.237,6.72,15.687,22.857,1.348-6.72-15.687,7.618,0.449ZM209.586,48.739l-10.135-.6,0.454-7.691,10.134,0.6ZM281.7,61.215l-25.372-1.5,0.153-2.588L269.2,57.881l0.6-10.134L257.074,47l0.152-2.587,25.372,1.5,1.048-17.753-45.713-2.7-3,50.816,45.713,2.7Zm59.268-30.258-50.816-3L287.154,78.7l50.816,3Zm-22.215,31.8-10.206-.6,0.9-15.237,10.206,0.6Zm79.261-25.617,0.153-2.587-20.341-1.2-1,16.963-9.134-17.56-20.341-1.2-3,50.816,20.34,1.2,1-16.891,9.138,17.488,20.34,1.2Z"/>
  <path id="Text" class="cls-2" d="M54.192,4.341L3.879,1.374l-3,50.816,20.341,1.2,0.9-15.238,10.206,0.6L52.093,39.92ZM32.925,28.619l-10.206-.6,0.454-7.691,10.206,0.6ZM110.5,8.312l-50.815-3-3,50.816,20.269,1.2,0.9-15.237,10.206,0.6-0.9,15.237,20.341,1.2ZM88.662,32.556l-10.206-.6,0.454-7.691,10.206,0.6Zm75.181-21.242L115.758,8.478l-1.047,17.753,14.231,0.839L127,60.061l20.341,1.2,1.946-32.991,13.512,0.8Zm57.584,3.18-50.816-3-3,50.816,20.34,1.2,0.9-15.237,6.72,15.687,22.857,1.348-6.72-15.687,7.618,0.449ZM199.586,38.739l-10.135-.6,0.454-7.691,10.134,0.6ZM271.7,51.215l-25.372-1.5,0.153-2.588L259.2,47.881l0.6-10.134L247.074,37l0.152-2.587,25.372,1.5,1.048-17.753-45.713-2.7-3,50.816,45.713,2.7Zm59.268-30.258-50.816-3L277.154,68.7l50.816,3Zm-22.215,31.8-10.206-.6,0.9-15.237,10.206,0.6Zm79.261-25.617,0.153-2.587-20.341-1.2-1,16.963-9.134-17.56-20.341-1.2-3,50.816,20.34,1.2,1-16.891,9.138,17.488,20.34,1.2Z"/>
</svg>
