<?xml version="1.0" encoding="utf-8"?>
<!-- Generator: Adobe Illustrator 26.1.0, SVG Export Plug-In . SVG Version: 6.00 Build 0)  -->
<svg version="1.1" id="Layer_1" xmlns="http://www.w3.org/2000/svg" xmlns:xlink="http://www.w3.org/1999/xlink" x="0px" y="0px"
	 viewBox="0 0 1280 720" style="enable-background:new 0 0 1280 720;" xml:space="preserve">
<style type="text/css">
	.st0{fill-rule:evenodd;clip-rule:evenodd;fill:#A8D59D;stroke:#000000;}
	.st1{fill-rule:evenodd;clip-rule:evenodd;fill:url(#Placeholder_00000099641625683566128110000007300347129068196256_);}
</style>
<path class="st0" d="M0,0h1280v720H0V0L0,0z"/>
<linearGradient id="Placeholder_00000012463057173839229750000017807274096402680753_" gradientUnits="userSpaceOnUse" x1="640.7335" y1="304.0432" x2="640.7335" y2="419.518" gradientTransform="matrix(0.9962 -8.715574e-02 -8.715574e-02 -0.9962 33.9571 776.3737)">
	<stop  offset="0" style="stop-color:#7DEDE2"/>
	<stop  offset="0.663" style="stop-color:#BDFFF2"/>
	<stop  offset="0.687" style="stop-color:#56E8F2"/>
	<stop  offset="1" style="stop-color:#56E8F2"/>
</linearGradient>
<path id="Placeholder" style="fill-rule:evenodd;clip-rule:evenodd;fill:url(#Placeholder_00000012463057173839229750000017807274096402680753_);" d="
	M93.8,350l-111.5,9.8l9.9,112.6l45.1-3.9l-3-33.8l66.4-5.8L93.8,350z M54.9,410.3l-22.6,2l-1.5-17l22.6-2L54.9,410.3L54.9,410.3z
	 M209.3,415.5l-51.6,4.5l-6.4-73.3l-45.1,3.9l9.9,112.6l96.7-8.5L209.3,415.5L209.3,415.5z M327.1,331l-112.6,9.9l9.9,112.6
	l44.9-3.9l-3-33.8l22.6-2l3,33.8l45.1-3.9L327.1,331L327.1,331z M287,391.4l-22.6,2l-1.5-17l22.6-2L287,391.4z M452.2,393.6
	l-59.7,5.2l-3-33.9l59.7-5.2l-3.4-39.3L341,329.5l9.9,112.6l104.8-9.2L452.2,393.6L452.2,393.6z M565.6,384.5l-56.2,4.9l-0.5-5.7
	l28.2-2.5l-2-22.5l-28.2,2.5l-0.5-5.7l56.2-4.9l-3.4-39.4l-101.3,8.9l9.9,112.6l101.3-8.9L565.6,384.5L565.6,384.5z M686.2,300.6
	l-45.1,3.9l3,33.9l-22.5,2l-3-33.9l-45.1,3.9l9.9,112.6l45.1-3.9l-3-33.8l22.5-2l3,33.8l45.1-3.9L686.2,300.6z M813,287.7
	l-112.6,9.9l9.8,112.5l112.6-9.9L813,287.7z M774.5,364.8l-22.6,2l-3-33.8l22.6-2L774.5,364.8L774.5,364.8z M930.5,352.4l-51.6,4.5
	l-6.4-73.3l-45.1,3.9l9.9,112.6l96.7-8.5L930.5,352.4z M1048.1,285.1l-24.1-14.9l-90,7.9l9.9,112.6l90-7.9L1055,364L1048.1,285.1
	L1048.1,285.1z M1008,345.5l-22.5,2l-2.5-28.2l22.5-2L1008,345.5L1008,345.5z M1167.6,331.9l-56.2,4.9l-0.5-5.7l28.2-2.5l-2-22.5
	l-28.2,2.5l-0.5-5.7l56.2-4.9l-3.4-39.4l-101.3,8.9l9.9,112.6l101.3-8.9L1167.6,331.9z M1289.2,246.1l-112.6,9.9l9.9,112.6l45.1-3.9
	l-3-33.8l19.8,32.3l50.7-4.4l-19.8-32.3l16.9-1.5L1289.2,246.1z M1249,306.4l-22.5,2l-1.5-17l22.5-2L1249,306.4L1249,306.4z"/>
</svg>
